REM DIRINDEX 1\2\5,1\2\6,1\2\7,1\2\8,1\3\9,1\3\10,1\3\11,1\4\12,1\4\13,1\4\14,1\4\15,1\4\16
REM DIRNAME folder01,folder02,folder03,folder04,folder05,folder06,folder07,folder08,folder09,folder10,folder11,folder12,folder13,folder14,folder15,folder16
TITLE ""
FILE "1200_sec02_0477_0485.mp3" MP3
  TRACK 01 AUDIO
    TITLE "0:"
    INDEX 01 00:00:00
  TRACK 02 AUDIO
    TITLE "12:cjc034_05551"
    INDEX 01 00:00:17
  TRACK 03 AUDIO
    TITLE "0:"
    INDEX 01 00:01:24
  TRACK 04 AUDIO
    TITLE "13:cjc034_05552"
    INDEX 01 00:01:60
  TRACK 05 AUDIO
    TITLE "0:"
    INDEX 01 00:05:63
  TRACK 06 AUDIO
    TITLE "14:cjc034_05553"
    INDEX 01 00:06:20
  TRACK 07 AUDIO
    TITLE "0:"
    INDEX 01 00:07:25
  TRACK 08 AUDIO
    TITLE "15:cjc034_05554"
    INDEX 01 00:07:60
  TRACK 09 AUDIO
    TITLE "0:"
    INDEX 01 00:12:24
  TRACK 10 AUDIO
    TITLE "12:cjc034_05555"
    INDEX 01 00:13:57
  TRACK 11 AUDIO
    TITLE "0:"
    INDEX 01 00:15:03
  TRACK 12 AUDIO
    TITLE "13:cjc034_05556"
    INDEX 01 00:15:36
  TRACK 13 AUDIO
    TITLE "0:"
    INDEX 01 00:17:74
  TRACK 14 AUDIO
    TITLE "14:cjc034_05557"
    INDEX 01 00:18:37
  TRACK 15 AUDIO
    TITLE "0:"
    INDEX 01 00:19:58
  TRACK 16 AUDIO
    TITLE "15:cjc034_05558"
    INDEX 01 00:20:14
  TRACK 17 AUDIO
    TITLE "0:"
    INDEX 01 00:24:25
  TRACK 18 AUDIO
    TITLE "12:cjc034_05559"
    INDEX 01 00:25:58
  TRACK 19 AUDIO
    TITLE "0:"
    INDEX 01 00:26:73
  TRACK 20 AUDIO
    TITLE "13:cjc034_05560"
    INDEX 01 00:27:34
  TRACK 21 AUDIO
    TITLE "0:"
    INDEX 01 00:31:22
  TRACK 22 AUDIO
    TITLE "14:cjc034_05561"
    INDEX 01 00:31:53
  TRACK 23 AUDIO
    TITLE "0:"
    INDEX 01 00:32:70
  TRACK 24 AUDIO
    TITLE "15:cjc034_05562"
    INDEX 01 00:33:26
  TRACK 25 AUDIO
    TITLE "0:"
    INDEX 01 00:38:10
  TRACK 26 AUDIO
    TITLE "12:cjc034_05563"
    INDEX 01 00:39:43
  TRACK 27 AUDIO
    TITLE "0:"
    INDEX 01 00:40:64
  TRACK 28 AUDIO
    TITLE "13:cjc034_05564"
    INDEX 01 00:41:20
  TRACK 29 AUDIO
    TITLE "0:"
    INDEX 01 00:43:19
  TRACK 30 AUDIO
    TITLE "14:cjc034_05565"
    INDEX 01 00:43:50
  TRACK 31 AUDIO
    TITLE "0:"
    INDEX 01 00:44:69
  TRACK 32 AUDIO
    TITLE "15:cjc034_05566"
    INDEX 01 00:45:28
  TRACK 33 AUDIO
    TITLE "0:"
    INDEX 01 00:49:23
  TRACK 34 AUDIO
    TITLE "12:cjc034_05567"
    INDEX 01 00:50:54
  TRACK 35 AUDIO
    TITLE "0:"
    INDEX 01 00:51:60
  TRACK 36 AUDIO
    TITLE "13:cjc034_05568"
    INDEX 01 00:52:16
  TRACK 37 AUDIO
    TITLE "0:"
    INDEX 01 00:54:32
  TRACK 38 AUDIO
    TITLE "14:cjc034_05569"
    INDEX 01 00:54:66
  TRACK 39 AUDIO
    TITLE "0:"
    INDEX 01 00:55:73
  TRACK 40 AUDIO
    TITLE "15:cjc034_05570"
    INDEX 01 00:56:29
  TRACK 41 AUDIO
    TITLE "0:"
    INDEX 01 01:00:59
  TRACK 42 AUDIO
    TITLE "12:cjc034_05571"
    INDEX 01 01:02:18
  TRACK 43 AUDIO
    TITLE "0:"
    INDEX 01 01:03:33
  TRACK 44 AUDIO
    TITLE "13:cjc034_05572"
    INDEX 01 01:03:67
  TRACK 45 AUDIO
    TITLE "0:"
    INDEX 01 01:06:30
  TRACK 46 AUDIO
    TITLE "14:cjc034_05573"
    INDEX 01 01:06:63
  TRACK 47 AUDIO
    TITLE "0:"
    INDEX 01 01:08:03
  TRACK 48 AUDIO
    TITLE "15:cjc034_05574"
    INDEX 01 01:08:36
  TRACK 49 AUDIO
    TITLE "0:"
    INDEX 01 01:11:58
  TRACK 50 AUDIO
    TITLE "12:cjc034_05575"
    INDEX 01 01:13:16
  TRACK 51 AUDIO
    TITLE "0:"
    INDEX 01 01:14:21
  TRACK 52 AUDIO
    TITLE "13:cjc034_05576"
    INDEX 01 01:14:53
  TRACK 53 AUDIO
    TITLE "0:"
    INDEX 01 01:18:31
  TRACK 54 AUDIO
    TITLE "14:cjc034_05577"
    INDEX 01 01:18:68
  TRACK 55 AUDIO
    TITLE "0:"
    INDEX 01 01:19:74
  TRACK 56 AUDIO
    TITLE "15:cjc034_05578"
    INDEX 01 01:20:32
  TRACK 57 AUDIO
    TITLE "0:"
    INDEX 01 01:24:41
  TRACK 58 AUDIO
    TITLE "12:cjc034_05579"
    INDEX 01 01:25:74
  TRACK 59 AUDIO
    TITLE "0:"
    INDEX 01 01:27:24
  TRACK 60 AUDIO
    TITLE "13:cjc034_05580"
    INDEX 01 01:27:59
  TRACK 61 AUDIO
    TITLE "0:"
    INDEX 01 01:30:18
  TRACK 62 AUDIO
    TITLE "14:cjc034_05581"
    INDEX 01 01:30:52
  TRACK 63 AUDIO
    TITLE "0:"
    INDEX 01 01:32:00
  TRACK 64 AUDIO
    TITLE "15:cjc034_05582"
    INDEX 01 01:32:35
  TRACK 65 AUDIO
    TITLE "0:"
    INDEX 01 01:36:43
  TRACK 66 AUDIO
    TITLE "12:cjc034_05583"
    INDEX 01 01:38:04
  TRACK 67 AUDIO
    TITLE "0:"
    INDEX 01 01:39:06
  TRACK 68 AUDIO
    TITLE "13:cjc034_05584"
    INDEX 01 01:39:41
  TRACK 69 AUDIO
    TITLE "0:"
    INDEX 01 01:43:11
  TRACK 70 AUDIO
    TITLE "14:cjc034_05585"
    INDEX 01 01:43:45
  TRACK 71 AUDIO
    TITLE "0:"
    INDEX 01 01:44:48
  TRACK 72 AUDIO
    TITLE "15:cjc034_05586"
    INDEX 01 01:45:08
  TRACK 73 AUDIO
    TITLE "0:"
    INDEX 01 01:50:25
